<svg xmlns="http://www.w3.org/2000/svg" viewBox="0 0 800 450" role="img" aria-label="Google Cloud Platform">
  <defs>
    <linearGradient id="gcp-bg" x1="0" x2="1" y1="0" y2="1">
      <stop offset="0%" stop-color="#1f2937"/>
      <stop offset="100%" stop-color="#111827"/>
    </linearGradient>
  </defs>
  <rect width="800" height="450" fill="url(#gcp-bg)"/>
  <path d="M400 138c35 0 67 13 92 34l-28 30c-17-14-39-23-64-23-48 0-87 40-87 88s39 88 87 88c42 0 78-31 85-72h-86v-39h127c1 7 2 15 2 23 0 74-58 129-128 129-72 0-131-58-131-129s59-129 131-129z" fill="#ffffff"/>
  <text x="400" y="92" fill="#ffffff" font-size="46" font-family="Inter, Arial, sans-serif" text-anchor="middle" font-weight="600">Google Cloud Platform</text>
</svg>
